<?xml version="1.0" encoding="utf-8"?><!-- Uploaded to: SVG Repo, www.svgrepo.com, Generator: SVG Repo Mixer Tools -->
<svg width="42px" height="42px" viewBox="0 0 40 40" fill="none" xmlns="http://www.w3.org/2000/svg">
<rect width="40" height="40" rx="8" fill="#b648ea" fill-opacity="0.4"/>
<path d="M28.62 12.8344C28.4605 12.6612 28.2414 12.5546 28.0066 12.5361L27.937 12.5333C27.7015 12.5324 27.4744 12.6205 27.3011 12.78C27.1278 12.9395 27.0213 13.1586 27.0028 13.3934H12.9972L12.9888 13.3239C12.9514 13.0856 12.8233 12.871 12.6313 12.7251C12.4392 12.5792 12.1981 12.5134 11.9586 12.5413C11.719 12.5692 11.4996 12.6888 11.3462 12.875C11.1929 13.0612 11.1176 13.2995 11.1361 13.5399L12.4684 30.4137L12.4778 30.507C12.5362 30.9567 12.7562 31.3698 13.0969 31.669C13.4376 31.9683 13.8756 32.1334 14.329 32.1333H25.6709L25.7647 32.131C26.2175 32.1081 26.6466 31.9213 26.9717 31.6052C27.2968 31.2892 27.4958 30.8657 27.5315 30.4137L28.8638 13.5404L28.8666 13.4704C28.8676 13.2349 28.7795 13.0077 28.62 12.8344Z" fill="white"/>
<path d="M30.2667 11.6C30.5088 11.5989 30.742 11.692 30.9168 11.8596C31.0916 12.0273 31.1944 12.2563 31.2035 12.4983C31.2126 12.7403 31.1272 12.9764 30.9655 13.1567C30.8037 13.3369 30.5782 13.4472 30.3367 13.4643L30.2667 13.4667H9.73332C9.49113 13.4677 9.258 13.3746 9.08318 13.207C8.90836 13.0394 8.80555 12.8104 8.79646 12.5684C8.78738 12.3263 8.87273 12.0903 9.03448 11.91C9.19623 11.7297 9.42173 11.6194 9.66332 11.6023L9.73332 11.6H30.2667Z" fill="white"/>
<path d="M22.3333 7.86667C23.0578 7.86664 23.754 8.1474 24.2758 8.64995C24.7976 9.15251 25.1043 9.83773 25.1314 10.5617L25.1333 10.6667V12.5333C25.1344 12.7755 25.0413 13.0087 24.8737 13.1835C24.706 13.3583 24.477 13.4611 24.235 13.4702C23.993 13.4793 23.7569 13.3939 23.5766 13.2322C23.3964 13.0704 23.2861 12.8449 23.269 12.6033L23.2667 12.5333V10.6667C23.2667 10.4312 23.1778 10.2044 23.0177 10.0317C22.8576 9.85909 22.6381 9.75333 22.4033 9.73567L22.3333 9.73334H17.6666C17.4312 9.73326 17.2044 9.82219 17.0317 9.9823C16.8591 10.1424 16.7533 10.3619 16.7356 10.5967L16.7333 10.6667V12.5333C16.7344 12.7755 16.6413 13.0087 16.4737 13.1835C16.306 13.3583 16.077 13.4611 15.835 13.4702C15.593 13.4793 15.3569 13.3939 15.1766 13.2322C14.9964 13.0704 14.8861 12.8449 14.869 12.6033L14.8666 12.5333V10.6667C14.8666 9.94222 15.1474 9.24597 15.6499 8.72418C16.1525 8.2024 16.8377 7.8957 17.5616 7.86854L17.6666 7.86667H22.3333Z" fill="white"/>
<path d="M23.7333 26.5333C24.2488 26.5333 24.6667 26.9512 24.6667 27.4667V27.4667C24.6667 27.5892 24.6425 27.7106 24.5956 27.8238C24.5487 27.9371 24.48 28.04 24.3933 28.1266C24.3066 28.2133 24.2038 28.282 24.0905 28.3289C23.9773 28.3759 23.8559 28.4 23.7333 28.4H16.2667C16.1441 28.4 16.0227 28.3759 15.9095 28.3289C15.7963 28.282 15.6934 28.2133 15.6067 28.1266C15.52 28.04 15.4513 27.9371 15.4044 27.8238C15.3575 27.7106 15.3333 27.5892 15.3333 27.4667V27.4667C15.3333 26.9512 15.7512 26.5333 16.2667 26.5333H23.7333Z" fill="#B5B5B5"/>
</svg>